<svg xmlns="http://www.w3.org/2000/svg" viewBox="0 0 128 128" width="128" height="128">
  <!-- Dark background -->
  <rect width="128" height="128" rx="16" fill="#1a1714"/>

  <!-- Open book icon in amber -->
  <g fill="#f0a623">
    <!-- Left page -->
    <path d="M64 30 C64 30 48 28 32 36 C32 36 28 38 28 44 L28 92 C28 96 32 98 32 98 C48 90 64 92 64 92 L64 30 Z" opacity="0.9"/>

    <!-- Right page -->
    <path d="M64 30 C64 30 80 28 96 36 C96 36 100 38 100 44 L100 92 C100 96 96 98 96 98 C80 90 64 92 64 92 L64 30 Z"/>

    <!-- Spine highlight -->
    <rect x="62" y="30" width="4" height="62" rx="2" fill="#f0a623" opacity="0.6"/>

    <!-- Page lines on left -->
    <rect x="36" y="46" width="20" height="3" rx="1.5" fill="#1a1714" opacity="0.3"/>
    <rect x="38" y="54" width="16" height="3" rx="1.5" fill="#1a1714" opacity="0.3"/>
    <rect x="36" y="62" width="18" height="3" rx="1.5" fill="#1a1714" opacity="0.3"/>
    <rect x="40" y="70" width="14" height="3" rx="1.5" fill="#1a1714" opacity="0.3"/>

    <!-- Page lines on right -->
    <rect x="72" y="46" width="20" height="3" rx="1.5" fill="#1a1714" opacity="0.3"/>
    <rect x="74" y="54" width="16" height="3" rx="1.5" fill="#1a1714" opacity="0.3"/>
    <rect x="72" y="62" width="18" height="3" rx="1.5" fill="#1a1714" opacity="0.3"/>
    <rect x="74" y="70" width="14" height="3" rx="1.5" fill="#1a1714" opacity="0.3"/>
  </g>
</svg>
